<?xml version="1.0" encoding="UTF-8" standalone="no"?>
<!-- Created with Inkscape (http://www.inkscape.org/) -->

<svg
   xmlns:dc="http://purl.org/dc/elements/1.1/"
   xmlns:cc="http://creativecommons.org/ns#"
   xmlns:rdf="http://www.w3.org/1999/02/22-rdf-syntax-ns#"
   xmlns:svg="http://www.w3.org/2000/svg"
   xmlns="http://www.w3.org/2000/svg"
   xmlns:sodipodi="http://sodipodi.sourceforge.net/DTD/sodipodi-0.dtd"
   xmlns:inkscape="http://www.inkscape.org/namespaces/inkscape"
   width="643.25232"
   height="637.3559"
   id="svg2"
   version="1.1"
   inkscape:version="0.48.5 r10040"
   sodipodi:docname="Dangerous Drugs Board (DDB).svg">
  <title
     id="title4805">Dangerous Drugs Board (DDB)</title>
  <defs
     id="defs4" />
  <sodipodi:namedview
     id="base"
     pagecolor="#ffffff"
     bordercolor="#666666"
     borderopacity="1.0"
     inkscape:pageopacity="0.0"
     inkscape:pageshadow="2"
     inkscape:zoom="0.39843749"
     inkscape:cx="324.82203"
     inkscape:cy="306.9973"
     inkscape:document-units="px"
     inkscape:current-layer="layer1"
     showgrid="false"
     inkscape:snap-bbox="false"
     inkscape:bbox-paths="true"
     inkscape:bbox-nodes="true"
     inkscape:snap-bbox-edge-midpoints="true"
     inkscape:object-nodes="false"
     inkscape:object-paths="false"
     inkscape:snap-intersection-paths="true"
     inkscape:snap-smooth-nodes="false"
     inkscape:snap-midpoints="false"
     inkscape:snap-bbox-midpoints="true"
     inkscape:snap-global="true"
     inkscape:snap-object-midpoints="true"
     inkscape:snap-center="true"
     inkscape:window-width="1366"
     inkscape:window-height="705"
     inkscape:window-x="-8"
     inkscape:window-y="-8"
     inkscape:window-maximized="1"
     inkscape:snap-grids="false"
     inkscape:snap-to-guides="false"
     inkscape:snap-page="true"
     inkscape:snap-nodes="true"
     fit-margin-top="0"
     fit-margin-left="0"
     fit-margin-right="0"
     fit-margin-bottom="0" />
  <metadata
     id="metadata7">
    <rdf:RDF>
      <cc:Work
         rdf:about="">
        <dc:format>image/svg+xml</dc:format>
        <dc:type
           rdf:resource="http://purl.org/dc/dcmitype/StillImage" />
        <dc:title>Dangerous Drugs Board (DDB)</dc:title>
      </cc:Work>
    </rdf:RDF>
  </metadata>
  <g
     inkscape:label="Layer 1"
     inkscape:groupmode="layer"
     id="layer1"
     transform="translate(43.206784,-102.47733)">
    <g
       id="g4868">
      <path
         transform="matrix(2.7823836,0,0,1.8865404,1062.269,-123.37693)"
         d="m -169.41177,288.62744 c 0,91.48435 -50.28457,165.64707 -112.31372,165.64707 -62.02916,0 -112.31373,-74.16272 -112.31373,-165.64707 0,-91.48435 50.28457,-165.64706 112.31373,-165.64706 62.02915,0 112.31372,74.16271 112.31372,165.64706 z"
         sodipodi:ry="165.64706"
         sodipodi:rx="112.31373"
         sodipodi:cy="288.62744"
         sodipodi:cx="-281.72549"
         id="path4616"
         style="opacity:0.98999999;color:#000000;fill:#ffffff;stroke:#0038a8;stroke-width:6.54721689;stroke-miterlimit:4;stroke-opacity:1;stroke-dasharray:none;marker:none;visibility:visible;display:inline;overflow:visible;enable-background:accumulate"
         sodipodi:type="arc" />
      <path
         sodipodi:open="true"
         sodipodi:end="3.1188971"
         sodipodi:start="0.048174298"
         transform="matrix(-0.82841464,0,0,0.83493447,590.89308,121.51396)"
         d="M 726.1138,375.67847 C 716.85832,565.36015 553.72779,711.71417 361.75157,702.56931 179.32667,693.87944 34.736966,547.33079 30.592278,366.92339"
         sodipodi:ry="343.84799"
         sodipodi:rx="348.00745"
         sodipodi:cy="359.12024"
         sodipodi:cx="378.5101"
         id="path4501"
         style="opacity:0.98999999;color:#000000;fill:#ffffff;fill-opacity:1;fill-rule:nonzero;stroke:none;stroke-width:1.11399996;marker:none;visibility:visible;display:inline;overflow:visible;enable-background:accumulate"
         sodipodi:type="arc" />
      <path
         transform="matrix(0,1.441409,-1.344598,0,145.81952,1015.9078)"
         d="m -240.12936,-98.602776 c 0,102.1324898 -77.2339,184.927231 -172.50675,184.927231 -95.27284,0 -172.50674,-82.7947412 -172.50674,-184.927231 0,-102.132484 77.2339,-184.927234 172.50674,-184.927234 95.27285,0 172.50675,82.79475 172.50675,184.927234 z"
         sodipodi:ry="184.92723"
         sodipodi:rx="172.50674"
         sodipodi:cy="-98.602776"
         sodipodi:cx="-412.63611"
         id="path4428-7"
         style="opacity:0.98999999;color:#000000;fill:none;stroke:none;stroke-width:0.6995092;marker:none;visibility:visible;display:inline;overflow:visible;enable-background:accumulate"
         sodipodi:type="arc" />
      <path
         transform="matrix(1.2877219,0,0,1.201233,808.69005,539.80074)"
         d="m -240.12936,-98.602776 c 0,102.1324898 -77.2339,184.927231 -172.50675,184.927231 -95.27284,0 -172.50674,-82.7947412 -172.50674,-184.927231 0,-102.132484 77.2339,-184.927234 172.50674,-184.927234 95.27285,0 172.50675,82.79475 172.50675,184.927234 z"
         sodipodi:ry="184.92723"
         sodipodi:rx="172.50674"
         sodipodi:cy="-98.602776"
         sodipodi:cx="-412.63611"
         id="path4428"
         style="opacity:0.98999999;color:#000000;fill:#ffffff;fill-opacity:1;fill-rule:nonzero;stroke:#0038a8;stroke-width:12.06053543;stroke-linecap:round;stroke-linejoin:bevel;stroke-miterlimit:4;stroke-opacity:1;stroke-dasharray:none;stroke-dashoffset:0;marker:none;visibility:visible;display:inline;overflow:visible;enable-background:accumulate"
         sodipodi:type="arc" />
      <path
         id="rect4362-1"
         d="m 140.30462,276.58001 0,105.36869 140.72095,0 140.74691,0 0,-105.36869 -140.74691,0 -140.72095,0 z"
         style="opacity:0.98999999;color:#000000;fill:#0038a8;fill-opacity:1;fill-rule:nonzero;stroke:#000000;stroke-width:0.84991711;stroke-linecap:round;stroke-linejoin:bevel;stroke-miterlimit:4;stroke-opacity:1;stroke-dasharray:none;stroke-dashoffset:0;marker:none;visibility:visible;display:inline;overflow:visible;enable-background:accumulate"
         inkscape:connector-curvature="0" />
      <path
         id="path4066-5"
         d="m 421.7708,372.81599 -128.33289,1.40141 -12.37913,9.44655 -0.0259,0 -12.37913,-9.44655 -128.35885,-1.37545 0,192.82374 140.73798,52.42314 0.0259,0 140.71202,-52.42314 0,-192.8497 z"
         style="fill:#4b92db;fill-opacity:1;stroke:#000000;stroke-width:0.83046567px;stroke-linecap:butt;stroke-linejoin:miter;stroke-opacity:1"
         inkscape:connector-curvature="0" />
      <path
         inkscape:connector-curvature="0"
         id="path3913"
         d="m 265.99965,372.50577 0,213.17595 12.40097,12.61305 12.42654,-12.61305 0,-213.17595 -12.42654,9.73229 -12.40097,-9.73229 z"
         style="fill:#ffffff;stroke:#000000;stroke-width:0.82406241;stroke-linecap:butt;stroke-linejoin:miter;stroke-miterlimit:4;stroke-opacity:1;stroke-dasharray:none" />
      <path
         inkscape:connector-curvature="0"
         id="path3952"
         d="m 278.40062,598.3252 0,-216.08714"
         style="fill:none;stroke:#000000;stroke-width:0.83046567px;stroke-linecap:butt;stroke-linejoin:miter;stroke-opacity:1" />
      <path
         transform="matrix(0.77846526,0,0,0.86847357,-12.428273,96.52237)"
         d="m 434.49519,519.55054 c 0,16.97675 -26.32328,30.73913 -58.79469,30.73913 -32.47141,0 -58.79469,-13.76238 -58.79469,-30.73913 0,-16.97676 26.32328,-30.73913 58.79469,-30.73913 32.47141,0 58.79469,13.76237 58.79469,30.73913 z"
         sodipodi:ry="30.739132"
         sodipodi:rx="58.794689"
         sodipodi:cy="519.55054"
         sodipodi:cx="375.7005"
         id="path3811"
         style="opacity:0.98999999;color:#000000;fill:#fcd116;fill-opacity:1;stroke:#000000;stroke-width:2;stroke-linecap:round;stroke-linejoin:round;stroke-miterlimit:4;stroke-opacity:1;stroke-dasharray:none;stroke-dashoffset:0;marker:none;visibility:visible;display:inline;overflow:visible;enable-background:accumulate"
         sodipodi:type="arc" />
      <path
         sodipodi:nodetypes="cccccccccc"
         inkscape:connector-curvature="0"
         id="path3813"
         d="m 266.29816,498.80864 11.61849,2.17599 12.29402,-1.87209 0.23663,19.07702 2.41056,10.05211 9.55808,11.54304 -48.08728,0.36269 10.41301,-12.54331 1.78843,-12.5439 z"
         style="fill:#fcd116;fill-opacity:1;stroke:none" />
      <path
         sodipodi:nodetypes="cacac"
         inkscape:connector-curvature="0"
         id="path2996-1"
         d="m 251.27808,544.51021 c 0,0 10.42235,-10.05701 12.89349,-16.61826 3.47396,-9.22392 1.78909,-29.51509 1.78909,-29.51509 0,0 6.24439,2.69745 9.57194,2.89563 3.58212,0.21333 10.60136,-1.87209 10.60136,-1.87209"
         style="fill:none;stroke:#000000;stroke-width:1.66093135;stroke-linecap:round;stroke-linejoin:round;stroke-miterlimit:4;stroke-opacity:1;stroke-dasharray:none" />
      <path
         sodipodi:nodetypes="cac"
         inkscape:connector-curvature="0"
         id="path2996-1-4"
         d="m 290.9811,498.58945 c 0,0 -1.68671,20.68844 1.86106,30.0908 2.47516,6.55973 12.89347,16.61827 12.89347,16.61827"
         style="fill:none;stroke:#000000;stroke-width:1.66093135;stroke-linecap:round;stroke-linejoin:round;stroke-miterlimit:4;stroke-opacity:1;stroke-dasharray:none" />
      <path
         transform="matrix(1.0964139,0,0,0.89506475,-135.09992,88.285149)"
         d="m 388.73941,458.31894 c 0,2.15726 -5.15797,3.90606 -11.52066,3.90606 -6.36269,0 -11.52066,-1.7488 -11.52066,-3.90606 0,-2.15726 5.15797,-3.90606 11.52066,-3.90606 6.36269,0 11.52066,1.7488 11.52066,3.90606 z"
         sodipodi:ry="3.9060612"
         sodipodi:rx="11.520662"
         sodipodi:cy="458.31894"
         sodipodi:cx="377.21875"
         id="path3878"
         style="opacity:0.98999999;color:#000000;fill:#fcd116;fill-opacity:1;fill-rule:nonzero;stroke:#000000;stroke-width:1.43888211;stroke-miterlimit:4;stroke-opacity:1;stroke-dasharray:none;marker:none;visibility:visible;display:inline;overflow:visible;enable-background:accumulate"
         sodipodi:type="arc" />
      <path
         sodipodi:open="true"
         sodipodi:end="3.4660242"
         sodipodi:start="0.21553501"
         transform="matrix(0.98712245,0,0,1.2004235,-96.250375,-79.636649)"
         d="m 419.68498,525.79825 c -4.63964,8.95723 -25.58016,14.62875 -46.77195,12.6677 -21.1918,-1.96106 -34.60997,-10.81209 -29.97033,-19.76933 0.30502,-0.58885 0.68568,-1.17025 1.1403,-1.74161"
         sodipodi:ry="16.602659"
         sodipodi:rx="39.279995"
         sodipodi:cy="522.24744"
         sodipodi:cx="381.31384"
         id="path3880"
         style="opacity:0.98999999;color:#000000;fill:none;stroke:#000000;stroke-width:1.90924394;stroke-linecap:round;stroke-linejoin:round;stroke-miterlimit:4;stroke-opacity:1;stroke-dasharray:none;stroke-dashoffset:0;marker:none;visibility:visible;display:inline;overflow:visible;enable-background:accumulate"
         sodipodi:type="arc" />
      <path
         sodipodi:nodetypes="csascccscc"
         inkscape:connector-curvature="0"
         id="path3882"
         d="m 278.64153,420.62157 c 0,0 -13.93436,29.30758 -18.91586,44.55368 -8.87939,27.17568 6.24968,36.80821 19.86764,36.31189 12.86611,-0.46891 25.8521,-8.72793 16.3048,-35.58547 -5.72329,-16.10028 -17.25658,-45.2801 -17.25658,-45.2801 z m -0.24889,30.91316 c 0,0 7.34433,14.84086 8.49003,22.86872 1.02529,5.60872 0.83624,18.98895 -8.35176,18.45641 -10.84269,-0.62844 -10.12334,-15.08094 -9.45793,-18.83307 1.57061,-7.6483 9.31966,-22.49206 9.31966,-22.49206 z"
         style="fill:#ce1126;fill-opacity:1;stroke:#fcd116;stroke-width:0.87286407px;stroke-linecap:butt;stroke-linejoin:miter;stroke-opacity:1" />
      <path
         sodipodi:nodetypes="ccsascccccccccccc"
         inkscape:connector-curvature="0"
         id="path4003"
         d="m 202.72733,366.90775 -2.14577,4.69721 c -14.49272,34.89431 -37.68185,79.09327 -46.94526,103.4162 -6.1263,16.08584 29.60676,22.21065 46.94522,22.21437 17.35418,0.003 53.39442,-6.21564 46.9975,-22.21433 -15.20435,-38.02606 -28.5579,-68.92684 -42.83685,-103.39025 l 0,-0.0259 z m -2.14577,11.49641 0,96.55736 -21.73594,0 -21.67357,0 z m 4.1607,0 37.68177,96.55736 -37.68177,0 z"
         style="fill:#fcd118;fill-opacity:1;stroke:#000000;stroke-width:0.83390111px;stroke-linecap:butt;stroke-linejoin:bevel;stroke-opacity:1" />
      <path
         sodipodi:nodetypes="ccsascccccccccccc"
         inkscape:connector-curvature="0"
         id="path4003-4"
         d="m 357.29132,366.90784 -2.14577,4.6972 c -14.49271,34.89432 -37.68185,79.09328 -46.94526,103.4162 -6.1263,16.08585 29.60676,22.21065 46.94522,22.21438 17.35418,0.003 53.39442,-6.21565 46.9975,-22.21434 -15.20435,-38.02605 -28.5579,-68.92683 -42.83684,-103.39025 l 0,-0.0259 z m -2.14577,11.49641 0,96.55735 -21.73594,0 -21.67357,0 z m 4.1607,0 37.68177,96.55735 -37.68177,0 z"
         style="fill:#fcd118;fill-opacity:1;stroke:#000000;stroke-width:0.83390111px;stroke-linecap:butt;stroke-linejoin:bevel;stroke-opacity:1" />
      <path
         inkscape:connector-curvature="0"
         id="path3954"
         d="m 278.40062,289.35781 c -8.75198,0 -15.841,3.6229 -15.841,8.09232 0,1.79057 1.13633,3.45798 3.06414,4.79835 l 0,46.29746 c -5.59199,2.7e-4 -11.74278,0.0572 -15.78318,0.23344 -4.43993,0.19371 -0.99522,9.08838 -4.79855,11.15289 -9.62848,5.22651 -33.53203,-3.47555 -33.53203,-3.47555 -1.8327,-1.00737 -4.09233,-1.60809 -6.53296,-1.60809 -6.13306,0 -11.10026,3.7482 -11.10026,8.37763 0,4.62945 4.9672,8.37764 11.10026,8.37764 2.23761,0 4.01264,-1.04976 6.07044,-1.34871 9.48376,-1.37782 19.13574,-2.47227 28.73349,-2.02309 8.74771,0.4094 25.84279,4.2796 25.84279,4.2796 l 12.77686,9.72636 12.77687,-9.72636 c 0,0 17.09507,-3.8702 25.84278,-4.2796 9.59775,-0.44918 19.24973,0.64527 28.73349,2.02309 2.05779,0.29895 3.83284,1.34871 6.07045,1.34871 6.13306,0 11.10026,-3.74819 11.10026,-8.37764 0,-4.62943 -4.9672,-8.37763 -11.10026,-8.37763 -2.44062,0 -4.70026,0.60072 -6.53297,1.60809 0,0 -23.90355,8.70206 -33.53202,3.47555 -3.80334,-2.06451 -0.35862,-10.95918 -4.79856,-11.15289 -4.0404,-0.17626 -10.19119,-0.23317 -15.78317,-0.23344 l 0,-46.32341 c 1.91282,-1.33729 3.06412,-2.98949 3.06412,-4.7724 0,-4.46942 -7.08901,-8.09232 -15.84099,-8.09232 z"
         style="opacity:0.98999999;color:#000000;fill:#fcd116;fill-opacity:1;stroke:#000000;stroke-width:1.22670031;stroke-linecap:round;stroke-linejoin:round;stroke-miterlimit:4;stroke-opacity:1;stroke-dasharray:none;stroke-dashoffset:0;marker:none;visibility:visible;display:inline;overflow:visible;enable-background:accumulate" />
      <g
         transform="matrix(0.83046565,0,0,0.83046565,-34.543099,119.21509)"
         id="text4494"
         style="font-size:64px;font-style:normal;font-variant:normal;font-weight:bold;font-stretch:normal;text-align:center;line-height:0%;letter-spacing:0px;word-spacing:0px;writing-mode:lr-tb;text-anchor:middle;fill:#ce1126;fill-opacity:1;stroke:none;font-family:Montserrat;-inkscape-font-specification:Montserrat Bold">
        <path
           inkscape:connector-curvature="0"
           id="path4533"
           style="line-height:0%;fill:#ce1126;font-family:Swiss 721;-inkscape-font-specification:Swiss 721"
           d="m 77.426473,344.69576 1.907859,-15.36984 c 0.456143,-3.24177 0.585589,-6.18957 0.388337,-8.8434 -0.197257,-2.65378 -1.022015,-5.18798 -2.474277,-7.60261 -1.618819,-2.63138 -3.926351,-4.77997 -6.922605,-6.44577 -2.996241,-1.66572 -6.626559,-2.76932 -10.890965,-3.3108 -7.704087,-0.96163 -13.65813,0.0513 -17.862145,3.03874 -4.203945,2.98755 -6.733256,7.97254 -7.587941,14.95498 l -2.223207,17.91031 z m -7.113388,-10.23408 -29.405938,-3.65016 1.080069,-8.70111 c 0.463093,-3.86028 2.02261,-6.55264 4.678558,-8.07708 2.656007,-1.52437 6.515539,-1.96428 11.578607,-1.31971 5.110865,0.60623 8.699793,2.04326 10.766796,4.3111 2.067018,2.2679 2.813707,5.56092 2.24007,9.87906 z" />
        <path
           inkscape:connector-curvature="0"
           id="path4535"
           style="line-height:0%;fill:#ce1126;font-family:Swiss 721;-inkscape-font-specification:Swiss 721"
           d="m 42.841251,274.91891 39.836789,28.26441 2.711304,-9.60867 -8.299049,-5.46718 4.849063,-17.18474 9.967545,-0.44584 2.693924,-9.54708 -48.787569,3.45653 z m 10.364234,-2.79434 20.585789,-0.84107 -3.476031,12.3188 z" />
        <path
           inkscape:connector-curvature="0"
           id="path4537"
           style="line-height:0%;fill:#ce1126;font-family:Swiss 721;-inkscape-font-specification:Swiss 721"
           d="m 96.467701,256.51992 3.881979,-8.49931 -28.757947,-13.13492 36.575087,-3.98014 4.0681,-8.90681 -41.856201,-19.11743 -3.881981,8.49932 28.757949,13.13492 -36.52191,3.8637 -4.12128,9.02324 z" />
        <path
           inkscape:connector-curvature="0"
           id="path4539"
           style="line-height:0%;fill:#ce1126;font-family:Swiss 721;-inkscape-font-specification:Swiss 721"
           d="m 130.74645,183.10418 5.1593,2.07401 3.52982,-5.26157 -20.67427,-13.86973 -10.62513,15.83788 6.53711,4.38554 5.81173,-8.663 c 2.31046,2.17302 3.6296,4.56722 3.95742,7.1826 0.3278,2.61544 -0.33715,5.18138 -1.99485,7.69781 -2.24275,3.28803 -5.14355,5.10863 -8.70238,5.46178 -3.55884,0.3532 -7.47585,-0.87776 -11.75104,-3.69289 -4.201422,-2.86996 -6.8357,-5.97946 -7.902844,-9.32851 -1.067104,-3.34899 -0.550251,-6.61797 1.550559,-9.80695 1.631561,-2.41998 3.463759,-4.02623 5.496595,-4.81877 2.03287,-0.79244 4.21088,-0.76023 6.53404,0.0966 l 5.38387,-8.02523 c -4.42627,-2.104 -8.77116,-2.4339 -13.03468,-0.98971 -4.2635,1.44431 -8.050477,4.59064 -11.360945,9.439 -3.651688,5.59408 -4.788474,11.20873 -3.410361,16.84396 1.37817,5.6353 5.146856,10.57193 11.306069,14.80991 6.248127,4.06484 12.263737,5.67613 18.046847,4.83387 5.7831,-0.84223 10.51658,-3.92516 14.20043,-9.2488 1.62259,-2.3971 2.59624,-4.81053 2.92097,-7.24028 0.32469,-2.42971 -10e-4,-5.00222 -0.97826,-7.71755 z" />
        <path
           inkscape:connector-curvature="0"
           id="path4541"
           style="line-height:0%;fill:#ce1126;font-family:Swiss 721;-inkscape-font-specification:Swiss 721"
           d="m 145.37328,172.91733 23.38165,-25.44919 -6.26804,-5.75881 -17.05995,18.56848 -8.7187,-8.01038 14.89497,-16.21207 -5.79676,-5.32582 -14.89497,16.21207 -7.21061,-6.6248 16.28056,-17.72017 -5.89102,-5.41242 -22.60226,24.60088 z" />
        <path
           inkscape:connector-curvature="0"
           id="path4543"
           style="line-height:0%;fill:#ce1126;font-family:Swiss 721;-inkscape-font-specification:Swiss 721"
           d="m 174.04676,142.51469 7.35061,-5.97369 -11.30158,-13.90656 7.7976,-6.33696 c 1.97118,-1.6483 3.68539,-2.35073 5.14263,-2.10729 1.45721,0.24351 3.04822,1.39365 4.77302,3.45043 l 3.16691,3.69391 c 0.80982,0.95002 1.58471,1.74285 2.32469,2.37851 0.73993,0.6357 1.45736,1.10412 2.15229,1.40529 l 8.04593,-6.53878 -0.88798,-1.09266 c -0.91905,0.17993 -1.71586,0.003 -2.39046,-0.53137 -0.67465,-0.53411 -1.43117,-1.32126 -2.26958,-2.36144 l -3.57984,-4.10054 c -1.77811,-2.10967 -3.4853,-3.52963 -5.12158,-4.25987 -1.63632,-0.73016 -3.51488,-0.71197 -5.63567,0.0545 1.26831,-1.95503 1.77178,-4.02043 1.51039,-6.19619 -0.26141,-2.175664 -1.28067,-4.364294 -3.05778,-6.565892 -2.79145,-3.447485 -5.80874,-5.232195 -9.05189,-5.354135 -3.24316,-0.121826 -6.79483,1.393513 -10.65503,4.546022 l -17.33353,14.086615 z m -8.99632,-26.08853 -7.66893,-9.43659 8.98959,-7.305671 c 1.71582,-1.387489 3.32306,-2.027043 4.82173,-1.918664 1.49866,0.108475 2.87478,0.935005 4.12836,2.479595 1.33042,1.62654 1.85756,3.18426 1.58143,4.67313 -0.27613,1.48896 -1.34622,2.98398 -3.21025,4.48507 z" />
        <path
           inkscape:connector-curvature="0"
           id="path4545"
           style="line-height:0%;fill:#ce1126;font-family:Swiss 721;-inkscape-font-specification:Swiss 721"
           d="m 196.77872,95.140049 c 3.80885,6.468941 8.50445,10.572731 14.08681,12.311381 5.58236,1.73867 11.40889,0.90962 17.47963,-2.48712 5.99057,-3.54137 9.64572,-8.166559 10.96548,-13.87558 1.31969,-5.708969 0.14216,-11.836488 -3.53259,-18.382574 -3.81118,-6.467549 -8.51603,-10.566021 -14.11455,-12.295426 -5.59856,-1.729294 -11.43434,-0.894935 -17.50737,2.50308 -5.98828,3.540105 -9.63419,8.159973 -10.93774,13.85962 -1.30353,5.699726 -0.11676,11.821926 3.56033,18.366619 z m 8.37681,-4.81866 c -2.53733,-4.477752 -3.52284,-8.463844 -2.95652,-11.958291 0.56633,-3.49437 2.5909,-6.258679 6.07372,-8.292937 3.5383,-2.004555 6.97114,-2.379551 10.29852,-1.124989 3.32735,1.254658 6.28917,4.103899 8.88547,8.547732 2.53615,4.478483 3.5101,8.471224 2.92184,11.978236 -0.58831,3.507065 -2.63831,6.286001 -6.15,8.336816 -3.50943,1.988001 -6.91684,2.348374 -10.22224,1.081111 -3.30541,-1.267226 -6.25567,-4.123115 -8.85079,-8.567678 z" />
        <path
           inkscape:connector-curvature="0"
           id="path4547"
           style="line-height:0%;fill:#ce1126;font-family:Swiss 721;-inkscape-font-specification:Swiss 721"
           d="m 237.71666,46.607022 10.5391,27.967784 c 2.04006,5.338124 5.06499,8.843216 9.07481,10.515285 4.0098,1.672082 8.81527,1.462757 14.41642,-0.627976 5.53055,-2.104027 9.24417,-5.104949 11.14086,-9.002775 1.89663,-3.897794 1.85113,-8.525625 -0.13649,-13.883509 l -10.5391,-27.967783 -8.86345,3.340014 10.17801,27.009573 c 1.25158,3.245793 1.51208,5.903268 0.7815,7.972433 -0.73062,2.069205 -2.58229,3.65892 -5.55502,4.76915 -2.93889,1.113171 -5.36456,1.126735 -7.277,0.04069 -1.91246,-1.086012 -3.46522,-3.247976 -4.65828,-6.485898 L 246.64,43.24444 z" />
        <path
           inkscape:connector-curvature="0"
           id="path4549"
           style="line-height:0%;fill:#ce1126;font-family:Swiss 721;-inkscape-font-specification:Swiss 721"
           d="m 292.42107,60.836953 c 1.30903,4.760607 3.82543,8.112621 7.54922,10.056052 3.72378,1.94344 8.46437,2.314633 14.2218,1.113578 5.83773,-1.290558 10.02697,-3.552935 12.56776,-6.787136 2.54071,-3.234181 3.3235,-7.187611 2.34838,-11.860303 -0.98525,-4.643219 -3.54123,-7.607648 -7.66796,-8.893294 -1.57056,-0.462141 -3.29191,-0.769228 -5.16407,-0.921263 -1.8722,-0.151971 -3.92651,-0.256718 -6.16294,-0.31424 -3.88548,-0.01461 -6.78647,-0.150444 -8.70299,-0.407512 -1.91653,-0.257002 -3.08344,-1.386679 -3.50072,-3.389035 -0.36126,-1.734757 0.004,-3.212142 1.09464,-4.43216 1.09102,-1.219937 2.8607,-2.098686 5.30906,-2.636249 2.79093,-0.593246 5.06128,-0.485757 6.81108,0.322468 1.74977,0.80831 2.94097,2.29278 3.57361,4.453413 l 8.88571,-1.906262 c -1.15841,-4.496957 -3.46413,-7.667804 -6.91716,-9.51255 -3.45308,-1.844647 -7.84111,-2.212383 -13.16411,-1.10321 -5.67266,1.240194 -9.72506,3.339573 -12.1572,6.298144 -2.43213,2.95866 -3.1865,6.62508 -2.26309,10.999271 0.50873,2.352287 1.36014,4.299656 2.55424,5.842112 1.1941,1.542511 2.69904,2.646036 4.51481,3.310576 1.66936,0.592359 3.38868,0.940793 5.15795,1.045305 1.76926,0.104557 3.6036,0.150129 5.50303,0.136715 4.29611,-0.03525 7.51448,0.16886 9.65512,0.612345 2.1406,0.44353 3.41481,1.653826 3.82262,3.630893 0.40456,1.879607 0.0336,3.442852 -1.11302,4.689742 -1.14664,1.246917 -3.08002,2.163513 -5.80017,2.749789 -3.09265,0.674388 -5.61667,0.604952 -7.57205,-0.208308 -1.95541,-0.813237 -3.37125,-2.429515 -4.24754,-4.848841 z" />
        <path
           inkscape:connector-curvature="0"
           id="path4551"
           style="line-height:0%;fill:#ce1126;font-family:Swiss 721;-inkscape-font-specification:Swiss 721"
           d="m 357.50234,64.186476 15.48775,-0.04145 c 3.27339,0.04457 6.21405,-0.19796 8.82197,-0.727602 2.60786,-0.52964 5.01812,-1.666745 7.2308,-3.411319 2.40675,-1.937082 4.24789,-4.49665 5.5234,-7.678709 1.27543,-3.182036 1.91341,-6.922372 1.91395,-11.221018 -0.0155,-7.763856 -1.7696,-13.543103 -5.26235,-17.337757 -3.49282,-3.794573 -8.75647,-5.676467 -15.79096,-5.645689 l -18.0477,0.0483 z m 9.25758,-8.344696 -0.0793,-29.631513 8.76785,-0.02346 c 3.88787,-0.02636 6.75507,1.181949 8.60162,3.624947 1.84649,2.443067 2.76858,6.216561 2.76627,11.320492 0.0417,5.146525 -0.93224,8.887759 -2.92194,11.223714 -1.98976,2.335979 -5.16263,3.491125 -9.51863,3.465442 z" />
        <path
           inkscape:connector-curvature="0"
           id="path4553"
           style="line-height:0%;fill:#ce1126;font-family:Swiss 721;-inkscape-font-specification:Swiss 721"
           d="m 404.0381,64.802918 9.36527,1.417116 2.68103,-17.718075 9.93478,1.503292 c 2.54574,0.34882 4.2189,1.14409 5.01948,2.385812 0.80052,1.241745 1.02045,3.192581 0.65979,5.852512 l -0.60115,4.828343 c -0.15774,1.238326 -0.22272,2.345046 -0.19493,3.320162 0.0277,0.975112 0.16402,1.821015 0.40891,2.53771 l 10.25118,1.551168 0.21065,-1.392135 c -0.75157,-0.558725 -1.15677,-1.267316 -1.21562,-2.125774 -0.0589,-0.858464 0.0142,-1.947768 0.21939,-3.267915 l 0.62405,-5.407427 c 0.36391,-2.734954 0.26536,-4.953303 -0.29563,-6.655051 -0.56108,-1.701724 -1.83871,-3.079027 -3.83289,-4.131912 2.29963,-0.377496 4.16618,-1.395004 5.59965,-3.052528 1.4334,-1.657484 2.36638,-3.884261 2.79895,-6.680338 0.67154,-4.384788 -0.0388,-7.817662 -2.13113,-10.298633 -2.09238,-2.480898 -5.60336,-4.088264 -10.53296,-4.822101 l -22.08431,-3.341713 z m 13.24319,-24.210815 1.81927,-12.022979 11.45347,1.733094 c 2.18097,0.335448 3.73564,1.093909 4.664,2.275386 0.9283,1.18154 1.24299,2.755651 0.94409,4.72234 -0.30783,2.078677 -1.1053,3.516864 -2.39242,4.314565 -1.28719,0.797746 -3.11315,1.0123 -5.47789,0.643663 z" />
        <path
           inkscape:connector-curvature="0"
           id="path4555"
           style="line-height:0%;fill:#ce1126;font-family:Swiss 721;-inkscape-font-specification:Swiss 721"
           d="m 462.76867,28.263091 -8.94705,28.517011 c -1.68526,5.460521 -1.46493,10.085166 0.661,13.873946 2.12591,3.788781 6.03828,6.58694 11.73713,8.394485 5.65146,1.753548 10.42547,1.68069 14.32204,-0.218572 3.8965,-1.899279 6.71411,-5.570785 8.45284,-11.01453 l 8.94705,-28.517011 -9.03751,-2.835466 -8.64051,27.539982 c -1.01594,3.327083 -2.4494,5.57991 -4.30038,6.758489 -1.85104,1.178579 -4.28904,1.288444 -7.31399,0.329595 -3.00012,-0.935676 -4.91819,-2.420615 -5.75421,-4.454821 -0.83605,-2.034197 -0.7255,-4.693694 0.33165,-7.9785 l 8.64051,-27.539983 z" />
        <path
           inkscape:connector-curvature="0"
           id="path4557"
           style="line-height:0%;fill:#ce1126;font-family:Swiss 721;-inkscape-font-specification:Swiss 721"
           d="m 524.91204,96.696161 -1.40801,5.379349 5.66409,2.83937 11.15671,-22.255841 -17.04946,-8.54679 -3.5277,7.037195 9.32571,4.674921 c -1.86487,2.565638 -4.07395,4.175685 -6.62725,4.830147 -2.55337,0.654449 -5.18261,0.317815 -7.88771,-1.009905 -3.54421,-1.810987 -5.7155,-4.45951 -6.51386,-7.945577 -0.79841,-3.486062 -0.0703,-7.526873 2.18418,-12.122445 2.31822,-4.529292 5.07136,-7.534064 8.25942,-9.014327 3.18801,-1.480215 6.49605,-1.379003 9.92413,0.303635 2.60612,1.313933 4.43025,2.929345 5.47239,4.846241 1.04205,1.916934 1.28429,4.081669 0.7267,6.494213 l 8.63916,4.330756 c 1.53004,-4.655928 1.31034,-9.007784 -0.65909,-13.055581 -1.96955,-4.047754 -5.56758,-7.408515 -10.79412,-10.082291 -6.00929,-2.918402 -11.72238,-3.339321 -17.13929,-1.262758 -5.41696,2.076627 -9.83988,6.436799 -13.26878,13.080527 -3.24593,6.710142 -4.0871,12.880737 -2.52351,18.511803 1.56356,5.631068 5.21786,9.938775 10.96291,12.923134 2.58229,1.307909 5.09908,1.969994 7.55039,1.986257 2.45125,0.01624 4.96224,-0.631108 7.53299,-1.942033 z" />
        <path
           inkscape:connector-curvature="0"
           id="path4559"
           style="line-height:0%;fill:#ce1126;font-family:Swiss 721;-inkscape-font-specification:Swiss 721"
           d="m 543.3982,97.112263 c -2.63184,4.177367 -3.40937,8.296067 -2.33259,12.356127 1.07675,4.06006 4.00012,7.81039 8.77009,11.251 4.89022,3.43953 9.38607,5.00652 13.48757,4.70098 4.10143,-0.30557 7.54822,-2.39413 10.34036,-6.26567 2.76355,-3.85914 3.22823,-7.74565 1.39404,-11.65954 -0.7181,-1.47125 -1.65239,-2.94924 -2.80286,-4.43399 -1.15056,-1.48474 -2.4588,-3.072082 -3.92475,-4.76203 -2.60988,-2.878489 -4.46624,-5.111903 -5.56909,-6.700249 -1.10291,-1.588315 -1.05592,-3.211779 0.14097,-4.870395 1.0371,-1.43677 2.37395,-2.163839 4.01056,-2.18121 1.63654,-0.01733 3.47892,0.696533 5.52716,2.141579 2.32041,1.660403 3.77235,3.409101 4.35583,5.246101 0.5834,1.83703 0.29086,3.71773 -0.87763,5.642104 l 7.40058,5.27457 c 2.53877,-3.888344 3.32465,-7.729308 2.35763,-11.522906 -0.96711,-3.793567 -3.65523,-7.281267 -8.06436,-10.463111 -4.7417,-3.351635 -9.02491,-4.927529 -12.84964,-4.727688 -3.82478,0.199903 -7.04049,2.115867 -9.64713,5.747898 -1.39356,1.962152 -2.25704,3.9042 -2.59044,5.82615 -0.33344,1.921989 -0.13313,3.77738 0.60094,5.566177 0.6886,1.632016 1.59099,3.136392 2.70716,4.513131 1.11612,1.376758 2.31969,2.761789 3.61072,4.155089 2.92364,3.14802 4.94366,5.66181 6.06005,7.54136 1.11632,1.87955 1.08218,3.63661 -0.10242,5.27117 -1.11484,1.56644 -2.51922,2.3469 -4.21313,2.34138 -1.69397,-0.006 -3.67472,-0.81474 -5.94223,-2.42758 -2.58382,-1.82844 -4.23494,-3.73875 -4.95337,-5.73093 -0.71846,-1.99218 -0.48012,-4.12763 0.71503,-6.40637 z" />
        <path
           inkscape:connector-curvature="0"
           id="path4561"
           style="line-height:0%;fill:#ce1126;font-family:Swiss 721;-inkscape-font-specification:Swiss 721"
           d="m 584.80694,147.42983 14.24061,15.42263 c 3.7295,3.98599 7.45897,6.19719 11.18842,6.6336 3.7294,0.43637 7.22411,-0.83781 10.48414,-3.82252 1.97556,-1.81877 3.22901,-3.77102 3.76035,-5.85677 0.53125,-2.08578 0.33587,-4.33354 -0.58615,-6.74328 1.89102,0.7764 3.72344,0.96453 5.49725,0.56439 1.77372,-0.40016 3.50558,-1.38226 5.19557,-2.9463 2.75883,-2.55652 4.04606,-5.4038 3.86168,-8.54183 -0.1845,-3.13803 -1.88987,-6.46687 -5.11614,-9.98654 l -14.7182,-15.93985 z m 26.90106,-12.46981 7.19409,-6.64273 7.29398,7.8994 c 1.55796,1.65196 2.4517,3.13874 2.6812,4.46035 0.22941,1.32162 -0.30578,2.58163 -1.60557,3.78003 -1.28157,1.18875 -2.59056,1.6461 -3.92698,1.37206 -1.3365,-0.27405 -2.76961,-1.24828 -4.29933,-2.9227 z m -14.62329,13.50253 8.8398,-8.1623 7.55448,8.18152 c 1.7942,1.90385 2.77449,3.63374 2.94086,5.18968 0.16631,1.55592 -0.56629,3.08169 -2.1978,4.57731 -1.53542,1.42677 -3.07365,2.00143 -4.6147,1.72396 -1.5411,-0.27749 -3.18268,-1.37137 -4.92475,-3.28163 z" />
        <path
           inkscape:connector-curvature="0"
           id="path4563"
           style="line-height:0%;fill:#ce1126;font-family:Swiss 721;-inkscape-font-specification:Swiss 721"
           d="m 633.01532,166.52467 c -6.20905,4.21928 -10.00054,9.17048 -11.37449,14.85361 -1.37397,5.68312 -0.16981,11.44383 3.61247,17.28216 3.92141,5.74898 8.77333,9.09733 14.55575,10.04507 5.78237,0.94768 11.8209,-0.6237 18.1156,-4.71415 6.20751,-4.22151 9.9931,-9.18159 11.35678,-14.88025 1.36357,-5.69868 0.1535,-11.46828 -3.63019,-17.30881 -3.92,-5.74677 -8.76601,-9.08624 -14.53804,-10.01842 -5.7721,-0.93215 -11.80472,0.64811 -18.09788,4.74079 z m 5.35037,8.04761 c 4.30426,-2.82163 8.21827,-4.06288 11.74203,-3.72376 3.52368,0.33913 6.41315,2.18067 8.66841,5.52462 2.22921,3.40124 2.82545,6.80264 1.78872,10.20419 -1.03682,3.40153 -3.68853,6.54144 -7.95513,9.41972 -4.30507,2.82051 -8.22646,4.05066 -11.76418,3.69046 -3.53777,-0.36025 -6.44348,-2.22622 -8.71713,-5.59791 -2.21082,-3.3735 -2.79082,-6.75047 -1.74,-10.13091 1.05078,-3.38045 3.70987,-6.50925 7.97728,-9.38641 z" />
        <path
           inkscape:connector-curvature="0"
           id="path4565"
           style="line-height:0%;fill:#ce1126;font-family:Swiss 721;-inkscape-font-specification:Swiss 721"
           d="m 688.80387,214.98172 -48.66117,4.2352 4.15173,9.07969 9.86491,-1.20327 7.42521,16.23869 -7.31,6.79077 4.12511,9.02149 34.95514,-34.20983 z m -6.09248,8.83784 -15.14881,13.96409 -5.32273,-11.64064 z" />
        <path
           inkscape:connector-curvature="0"
           id="path4567"
           style="line-height:0%;fill:#ce1126;font-family:Swiss 721;-inkscape-font-specification:Swiss 721"
           d="m 659.78574,263.72667 2.60101,9.10775 17.23089,-4.92083 2.75918,9.6616 c 0.74013,2.46063 0.7117,4.31295 -0.0853,5.55698 -0.79704,1.24398 -2.48027,2.25437 -5.04968,3.03117 l -4.64181,1.45873 c -1.19196,0.37088 -2.22568,0.77147 -3.10116,1.20179 -0.87549,0.43025 -1.58835,0.90561 -2.13857,1.42607 l 2.84705,9.9693 1.35386,-0.38664 c 0.19606,-0.91574 0.67232,-1.57867 1.42877,-1.98878 0.75643,-0.41019 1.77769,-0.79614 3.06379,-1.15784 l 5.17809,-1.67844 c 2.63901,-0.805 4.616,-1.81609 5.93097,-3.03326 1.31492,-1.21723 2.03709,-2.95153 2.16651,-5.20288 1.2986,1.93505 2.99949,3.21032 5.10269,3.82579 2.10312,0.61541 4.51625,0.53915 7.23938,-0.22878 4.26757,-1.21046 7.09521,-3.28259 8.48294,-6.21637 1.38763,-2.93384 1.3914,-6.79527 0.0113,-11.58429 l -6.13347,-21.47707 z m 27.52426,1.99012 11.69239,-3.33914 3.18097,11.13854 c 0.60077,2.12325 0.55661,3.8525 -0.1325,5.18775 -0.6892,1.3352 -1.99038,2.27531 -3.90353,2.82032 -2.01874,0.58341 -3.65823,0.45538 -4.9185,-0.38411 -1.26034,-0.83952 -2.21396,-2.41139 -2.86088,-4.7156 z" />
        <path
           inkscape:connector-curvature="0"
           id="path4569"
           style="line-height:0%;fill:#ce1126;font-family:Swiss 721;-inkscape-font-specification:Swiss 721"
           d="m 671.67067,307.94966 1.90786,15.36984 c 0.35029,3.25491 0.94549,6.14489 1.7856,8.66996 0.8401,2.52501 2.25942,4.78065 4.25797,6.76693 2.21304,2.15573 4.97586,3.67494 8.28845,4.55763 3.31257,0.8826 7.10253,1.06512 11.36991,0.54755 7.70539,-0.95114 13.23108,-3.38903 16.57709,-7.31368 3.34593,-3.92472 4.57969,-9.37682 3.70128,-16.35631 l -2.22321,-17.91031 z m 9.39967,8.18432 29.40594,-3.65016 1.08007,8.70111 c 0.49477,3.85634 -0.35916,6.84828 -2.56179,8.97582 -2.2027,2.12748 -5.83754,3.49766 -10.90455,4.11054 -5.10397,0.66174 -8.93532,0.14579 -11.49406,-1.54786 -2.55878,-1.6937 -4.08792,-4.70422 -4.58745,-9.03156 z" />
      </g>
      <g
         transform="matrix(0.83046565,0,0,0.83046565,-34.543099,119.21509)"
         id="text4503"
         style="font-size:64px;font-style:normal;font-variant:normal;font-weight:bold;font-stretch:normal;text-align:center;line-height:125%;letter-spacing:0px;word-spacing:0px;writing-mode:lr-tb;text-anchor:middle;fill:#000000;fill-opacity:1;stroke:none;font-family:Montserrat;-inkscape-font-specification:Montserrat Bold">
        <path
           inkscape:connector-curvature="0"
           id="path4572"
           style="line-height:0%;letter-spacing:5px;font-family:Swiss 721;-inkscape-font-specification:Swiss 721 Bold"
           d="m 54.801993,416.01008 c -7.289025,1.79575 -12.566113,5.11872 -15.83128,9.96891 -3.265181,4.85018 -4.140265,10.66998 -2.625253,17.45942 1.67654,6.75407 5.060582,11.58115 10.152138,14.48128 5.091527,2.90004 11.299536,3.52748 18.624046,1.88232 7.288357,-1.79838 12.562999,-5.13173 15.823942,-10.00005 3.260845,-4.86839 4.133481,-10.69857 2.617911,-17.49057 -1.675984,-6.75151 -5.05758,-11.56821 -10.144797,-14.45013 -5.0873,-2.88192 -11.292863,-3.49898 -18.616707,-1.85118 z m 2.216596,9.40624 c 5.017005,-1.14804 9.118346,-0.95017 12.304037,0.59361 3.185616,1.54376 5.253975,4.27546 6.205084,8.19511 0.906755,3.96429 0.282485,7.36065 -1.872813,10.18909 -2.155381,2.82838 -5.733768,4.8497 -10.73517,6.06394 -5.017368,1.1467 -9.121767,0.93585 -12.313211,-0.63255 -3.191482,-1.56845 -5.266569,-4.32871 -6.225268,-8.28076 -0.899168,-3.93189 -0.26817,-7.29969 1.892996,-10.10344 2.161137,-2.80376 5.742582,-4.8121 10.744345,-6.025 z" />
        <path
           inkscape:connector-curvature="0"
           id="path4574"
           style="line-height:0%;letter-spacing:5px;font-family:Swiss 721;-inkscape-font-specification:Swiss 721 Bold"
           d="m 47.06286,476.87027 3.427883,8.6924 18.218304,-7.18447 7.325339,18.57552 7.442118,-2.93483 -7.325339,-18.57552 9.704521,-3.82702 8.3584,21.19515 7.442114,-2.93483 -11.786279,-29.88755 z" />
        <path
           inkscape:connector-curvature="0"
           id="path4576"
           style="line-height:0%;letter-spacing:5px;font-family:Swiss 721;-inkscape-font-specification:Swiss 721 Bold"
           d="m 63.782377,516.76807 4.494158,8.19211 17.169761,-9.41926 9.603953,17.50642 7.013791,-3.84774 -9.603953,-17.50642 9.145983,-5.01745 10.95836,19.97528 7.01379,-3.84774 -15.45252,-28.16739 z" />
        <path
           inkscape:connector-curvature="0"
           id="path4578"
           style="line-height:0%;letter-spacing:5px;font-family:Swiss 721;-inkscape-font-specification:Swiss 721 Bold"
           d="m 85.778686,554.36035 5.350056,7.81622 37.972068,-25.99115 -5.35006,-7.81622 z" />
        <path
           inkscape:connector-curvature="0"
           id="path4580"
           style="line-height:0%;letter-spacing:5px;font-family:Swiss 721;-inkscape-font-specification:Swiss 721 Bold"
           d="m 137.68969,594.44758 -6.06034,-7.02769 c -2.45703,1.38108 -4.82735,1.8582 -7.11098,1.43134 -2.28368,-0.42689 -4.37473,-1.7329 -6.27316,-3.91803 -2.57083,-3.01383 -3.54298,-6.20729 -2.91645,-9.58037 0.62649,-3.3731 2.85398,-6.72712 6.68249,-10.06208 3.91963,-3.36603 7.59727,-5.10785 11.03296,-5.22546 3.43561,-0.11759 6.52083,1.39803 9.25565,4.54687 1.9207,2.24163 2.92723,4.45822 3.01961,6.64979 0.0923,2.19157 -0.71855,4.28519 -2.43248,6.28087 l 6.10214,7.07615 c 3.72328,-3.6774 5.5704,-7.71752 5.54136,-12.12035 -0.0291,-4.40284 -1.97349,-8.87066 -5.83301,-13.40347 -4.76532,-5.47892 -9.9613,-8.31524 -15.58796,-8.50897 -5.62672,-0.19369 -11.42985,2.26834 -17.40939,7.38608 -5.84251,5.10521 -9.12412,10.44222 -9.84485,16.01106 -0.72074,5.56882 1.13293,10.9564 5.56101,16.16274 3.97635,4.51305 8.28807,7.13654 12.93517,7.87047 4.64704,0.73388 9.09312,-0.45577 13.33823,-3.56895 z" />
        <path
           inkscape:connector-curvature="0"
           id="path4582"
           style="line-height:0%;letter-spacing:5px;font-family:Swiss 721;-inkscape-font-specification:Swiss 721 Bold"
           d="m 134.8629,613.46637 26.0611,22.69762 5.59034,-6.41876 -19.01495,-16.56085 7.77604,-8.92834 16.60188,14.45922 5.17002,-5.93614 -16.60189,-14.45922 6.43099,-7.38398 18.14625,15.80427 5.25408,-6.03267 -25.1924,-21.94102 z" />
        <path
           inkscape:connector-curvature="0"
           id="path4584"
           style="line-height:0%;letter-spacing:5px;font-family:Swiss 721;-inkscape-font-specification:Swiss 721 Bold"
           d="m 199.15264,635.54597 c -3.55504,6.61183 -4.62802,12.755 -3.21893,18.42952 1.40906,5.67452 5.14006,10.22594 11.19301,13.65429 6.13501,3.28479 11.98527,4.01073 17.55079,2.17781 5.56545,-1.83294 10.19345,-6.018 13.884,-12.55519 3.55263,-6.6131 4.61627,-12.76141 3.1909,-18.44496 -1.42548,-5.68351 -5.16582,-10.24008 -11.22104,-13.66973 -6.13274,-3.28348 -11.97366,-4.00427 -17.52277,-2.16237 -5.54916,1.84196 -10.16781,6.03217 -13.85596,12.57063 z m 8.46478,4.66241 c 2.51218,-4.49191 5.40895,-7.40205 8.6903,-8.73042 3.2813,-1.32834 6.6948,-1.03125 10.24054,0.89125 3.54911,1.98535 5.65032,4.72577 6.30362,8.22128 0.65321,3.49553 -0.24649,7.50565 -2.69909,12.03038 -2.51342,4.49128 -5.42187,7.39499 -8.72535,8.71113 -3.30354,1.31612 -6.74275,1.00488 -10.31761,-0.93372 -3.51999,-1.96924 -5.5955,-4.69551 -6.22654,-8.17881 -0.63108,-3.4833 0.28029,-7.48699 2.73413,-12.01109 z" />
        <path
           inkscape:connector-curvature="0"
           id="path4586"
           style="line-height:0%;letter-spacing:5px;font-family:Swiss 721;-inkscape-font-specification:Swiss 721 Bold"
           d="m 239.10689,682.11284 8.74125,3.3013 6.91917,-18.3207 18.67994,7.05484 2.82646,-7.48395 -18.67994,-7.05484 3.68571,-9.75907 21.31428,8.04976 2.82646,-7.48395 -30.05554,-11.35106 z" />
        <path
           inkscape:connector-curvature="0"
           id="path4588"
           style="line-height:0%;letter-spacing:5px;font-family:Swiss 721;-inkscape-font-specification:Swiss 721 Bold"
           d="m 311.7417,703.7436 9.33608,1.59815 6.38181,-37.28124 13.3733,2.28924 1.38218,-8.07445 -36.14577,-6.18743 -1.38218,8.07445 13.43639,2.30004 z" />
        <path
           inkscape:connector-curvature="0"
           id="path4590"
           style="line-height:0%;letter-spacing:5px;font-family:Swiss 721;-inkscape-font-specification:Swiss 721 Bold"
           d="m 344.86857,708.7247 9.53085,0.30976 0.66317,-20.40496 18.99772,0.61743 -0.66317,20.40496 9.53085,0.30976 1.49473,-45.99112 -9.53084,-0.30976 -0.55715,17.14273 -18.99773,-0.61744 0.55715,-17.14273 -9.53084,-0.30975 z" />
        <path
           inkscape:connector-curvature="0"
           id="path4592"
           style="line-height:0%;letter-spacing:5px;font-family:Swiss 721;-inkscape-font-specification:Swiss 721 Bold"
           d="m 397.377,709.20699 34.35743,-3.73227 -0.91924,-8.46211 -25.0682,2.72317 -1.27865,-11.7706 21.88696,-2.37759 -0.85013,-7.82586 -21.88696,2.37759 -1.05747,-9.7346 23.92295,-2.59877 -0.86395,-7.95311 -33.21219,3.60786 z" />
        <path
           inkscape:connector-curvature="0"
           id="path4594"
           style="line-height:0%;letter-spacing:5px;font-family:Swiss 721;-inkscape-font-specification:Swiss 721 Bold"
           d="m 470.31762,679.47427 11.09099,-3.55842 c 4.3363,-1.41925 7.25813,-3.71214 8.76548,-6.87867 1.5073,-3.16648 1.54236,-7.02004 0.10519,-11.56069 -1.48493,-4.61068 -3.78488,-7.72908 -6.89985,-9.35521 -3.11501,-1.62602 -6.99257,-1.70099 -11.6327,-0.2249 l -19.50064,6.25658 14.05774,43.81549 9.01905,-2.89367 z m -2.54173,-7.92213 -4.06678,-12.67541 9.2628,-2.97188 c 2.10276,-0.669 3.8472,-0.63498 5.23332,0.10208 1.38609,0.73714 2.4117,2.14441 3.07684,4.22179 0.72531,2.23458 0.69661,4.03052 -0.0861,5.38783 -0.78276,1.35737 -2.33102,2.39741 -4.64479,3.12013 z" />
        <path
           inkscape:connector-curvature="0"
           id="path4596"
           style="line-height:0%;letter-spacing:5px;font-family:Swiss 721;-inkscape-font-specification:Swiss 721 Bold"
           d="m 511.50438,682.49299 8.51731,-4.14391 -7.83982,-16.11382 9.03525,-4.3959 c 2.2946,-1.1564 4.12369,-1.45024 5.48728,-0.88152 1.36354,0.56878 2.65102,2.05085 3.86243,4.44622 l 2.24305,4.31775 c 0.57234,1.1094 1.14645,2.05779 1.72233,2.84519 0.57582,0.78742 1.16781,1.40684 1.77595,1.85827 l 9.323,-4.5359 -0.61598,-1.26608 c -0.93588,-0.034 -1.67148,-0.38781 -2.20678,-1.0615 -0.53538,-0.67365 -1.0929,-1.61232 -1.67256,-2.81602 l -2.55259,-4.8077 c -1.25128,-2.459 -2.59048,-4.23025 -4.01762,-5.31374 -1.42718,-1.08343 -3.26057,-1.49328 -5.50017,-1.22957 1.67999,-1.61506 2.64033,-3.51166 2.88102,-5.6898 0.24063,-2.17806 -0.25374,-4.54124 -1.48313,-7.08953 -1.93353,-3.99234 -4.46543,-6.41694 -7.59571,-7.27383 -3.13032,-0.85678 -6.93366,-0.18957 -11.41006,2.00161 l -20.08474,9.77178 z m -2.82243,-27.4514 -5.31988,-10.93438 10.41644,-5.06789 c 1.98658,-0.96055 3.6972,-1.21751 5.13187,-0.77087 1.43464,0.44672 2.58652,1.56477 3.45565,3.35413 0.92529,1.88666 1.08407,3.52347 0.47632,4.91042 -0.60778,1.38704 -1.99005,2.59927 -4.14681,3.6367 z" />
        <path
           inkscape:connector-curvature="0"
           id="path4598"
           style="line-height:0%;letter-spacing:5px;font-family:Swiss 721;-inkscape-font-specification:Swiss 721 Bold"
           d="m 556.63018,659.24556 28.6524,-19.32362 -4.75934,-7.05698 -20.90564,14.09909 -6.62013,-9.81611 18.25264,-12.30986 -4.40149,-6.52638 -18.25264,12.30986 -5.47503,-8.11818 19.95056,-13.45497 -4.47306,-6.6325 -27.69732,18.67951 z" />
        <path
           inkscape:connector-curvature="0"
           id="path4600"
           style="line-height:0%;letter-spacing:5px;font-family:Swiss 721;-inkscape-font-specification:Swiss 721 Bold"
           d="m 583.82303,623.12345 c 3.4938,3.48859 7.33949,5.15562 11.53706,5.0011 4.19757,-0.1545 8.50044,-2.17844 12.90862,-6.07183 4.43365,-4.0109 6.9539,-8.05027 7.56076,-12.11811 0.6068,-4.06779 -0.66987,-7.89042 -3.83003,-11.4679 -3.15436,-3.54685 -6.84259,-4.85752 -11.0647,-3.932 -1.59342,0.37583 -3.24111,0.96102 -4.94309,1.75559 -1.70199,0.79464 -3.53885,1.72046 -5.51057,2.77745 -3.38335,1.91052 -5.97128,3.22841 -7.7638,3.95367 -1.7925,0.72533 -3.3656,0.32133 -4.71929,-1.21199 -1.17256,-1.32853 -1.58679,-2.79284 -1.24266,-4.39296 0.34415,-1.60003 1.44688,-3.23953 3.3082,-4.9185 2.13141,-1.89691 4.15735,-2.92728 6.07781,-3.09112 1.92048,-0.16374 3.6903,0.53651 5.30947,2.10076 l 6.7773,-6.05457 c -3.23244,-3.33405 -6.80538,-4.94795 -10.71885,-4.8417 -3.91345,0.10636 -7.90826,1.95879 -11.98444,5.55731 -4.31516,3.88544 -6.79718,7.71544 -7.44606,11.49001 -0.64884,3.77465 0.51047,7.33382 3.47794,10.67752 1.60636,1.79211 3.31005,3.06277 5.11109,3.81197 1.80107,0.74925 3.65494,0.96321 5.56161,0.64187 1.74372,-0.31159 3.41011,-0.85985 4.99918,-1.64478 1.58907,-0.78489 3.2055,-1.65324 4.8493,-2.60507 3.71546,-2.1571 6.61296,-3.57275 8.69249,-4.24697 2.07952,-0.67416 3.78576,-0.25322 5.1187,1.26281 1.28189,1.43296 1.73329,2.97491 1.35419,4.62587 -0.37912,1.65101 -1.60536,3.40443 -3.67872,5.26025 -2.35343,2.11676 -4.58094,3.30575 -6.68252,3.56697 -2.10161,0.26125 -4.13186,-0.44234 -6.09078,-2.11077 z" />
        <path
           inkscape:connector-curvature="0"
           id="path4602"
           style="line-height:0%;letter-spacing:5px;font-family:Swiss 721;-inkscape-font-specification:Swiss 721 Bold"
           d="m 629.75967,599.27986 6.37087,-7.00918 -34.05133,-30.95035 -6.37087,7.00917 z" />
        <path
           inkscape:connector-curvature="0"
           id="path4604"
           style="line-height:0%;letter-spacing:5px;font-family:Swiss 721;-inkscape-font-specification:Swiss 721 Bold"
           d="m 646.08905,581.23005 9.10124,-12.53153 c 1.96666,-2.61714 3.5052,-5.1349 4.61565,-7.55331 1.11041,-2.41835 1.61373,-5.03542 1.50994,-7.85122 -0.14478,-3.08606 -1.12584,-6.0825 -2.94321,-8.98933 -1.81739,-2.90674 -4.46161,-5.628 -7.93265,-8.16379 -6.27882,-4.56663 -11.98042,-6.55871 -17.10481,-5.97625 -5.12437,0.58257 -9.74861,3.72327 -13.87271,9.42211 l -10.60557,14.60287 z m -1.27859,-12.39766 -23.97563,-17.4127 5.15236,-7.0943 c 2.27178,-3.15518 4.93863,-4.75792 8.00057,-4.80821 3.06195,-0.0502 6.65308,1.43078 10.77339,4.44296 4.18068,3.00172 6.62745,5.99485 7.34032,8.97937 0.71285,2.98459 -0.22569,6.22815 -2.81561,9.73068 z" />
        <path
           inkscape:connector-curvature="0"
           id="path4606"
           style="line-height:0%;letter-spacing:5px;font-family:Swiss 721;-inkscape-font-specification:Swiss 721 Bold"
           d="m 675.38528,538.86039 16.1421,-30.55807 -7.52634,-3.97574 -11.77775,22.29607 -10.46897,-5.53016 10.28311,-19.46662 -6.96045,-3.67681 -10.28311,19.46662 -8.65812,-4.57359 11.23968,-21.27747 -7.07363,-3.7366 -15.60402,29.53947 z" />
        <path
           inkscape:connector-curvature="0"
           id="path4608"
           style="line-height:0%;letter-spacing:5px;font-family:Swiss 721;-inkscape-font-specification:Swiss 721 Bold"
           d="m 696.49013,497.10823 3.13049,-8.80387 -29.78843,-10.59221 36.0923,-7.13613 3.28059,-9.22597 -43.35604,-15.4166 -3.13049,8.80387 29.78843,10.59221 -36.04942,7.01552 -3.32347,9.34658 z" />
        <path
           inkscape:connector-curvature="0"
           id="path4610"
           style="line-height:0%;letter-spacing:5px;font-family:Swiss 721;-inkscape-font-specification:Swiss 721 Bold"
           d="m 714.69115,437.98669 1.90458,-9.27842 -37.05098,-7.60545 2.72818,-13.2907 -8.02458,-1.64721 -7.37381,35.92253 8.02458,1.6472 2.74105,-13.3534 z" />
      </g>
      <path
         transform="matrix(0.96608459,0,0,0.99828739,-36.16992,56.220181)"
         d="m 57.539081,377.14453 c 0,5.74301 -4.810813,10.39863 -10.74525,10.39863 -5.934438,0 -10.74525,-4.65562 -10.74525,-10.39863 0,-5.743 4.810812,-10.39863 10.74525,-10.39863 5.934437,0 10.74525,4.65563 10.74525,10.39863 z"
         sodipodi:ry="10.398629"
         sodipodi:rx="10.74525"
         sodipodi:cy="377.14453"
         sodipodi:cx="46.793831"
         id="path4510"
         style="opacity:0.98999999;color:#000000;fill:#ce1126;fill-opacity:1;fill-rule:nonzero;stroke:none;stroke-width:1.11399996;marker:none;visibility:visible;display:inline;overflow:visible;enable-background:accumulate"
         sodipodi:type="arc" />
      <path
         transform="matrix(0.96608459,0,0,0.99828747,502.12231,56.22011)"
         d="m 57.539081,377.14453 c 0,5.74301 -4.810813,10.39863 -10.74525,10.39863 -5.934438,0 -10.74525,-4.65562 -10.74525,-10.39863 0,-5.743 4.810812,-10.39863 10.74525,-10.39863 5.934437,0 10.74525,4.65563 10.74525,10.39863 z"
         sodipodi:ry="10.398629"
         sodipodi:rx="10.74525"
         sodipodi:cy="377.14453"
         sodipodi:cx="46.793831"
         id="path4510-1"
         style="opacity:0.98999999;color:#000000;fill:#ce1126;fill-opacity:1;fill-rule:nonzero;stroke:none;stroke-width:1.11399996;marker:none;visibility:visible;display:inline;overflow:visible;enable-background:accumulate"
         sodipodi:type="arc" />
    </g>
  </g>
</svg>
